<svg width="21" height="21" viewBox="0 0 21 21" fill="none" xmlns="http://www.w3.org/2000/svg">
<g id="ic-search">
<path id="shape" fill-rule="evenodd" clip-rule="evenodd" d="M14.6356 15.4974C13.3151 16.6216 11.6034 17.3 9.73329 17.3C5.55434 17.3 2.16663 13.9123 2.16663 9.73334C2.16663 5.55438 5.55434 2.16667 9.73329 2.16667C13.9122 2.16667 17.3 5.55438 17.3 9.73334C17.3 11.5922 16.6297 13.2944 15.5177 14.6117L19.1497 18.2437L18.2658 19.1276L14.6356 15.4974ZM16.05 9.73334C16.05 13.2219 13.2219 16.05 9.73329 16.05C6.24469 16.05 3.41663 13.2219 3.41663 9.73334C3.41663 6.24474 6.24469 3.41667 9.73329 3.41667C13.2219 3.41667 16.05 6.24474 16.05 9.73334Z" fill="#FFFDF8" fill-opacity="0.7"/>
</g>
</svg>
